<svg xmlns="http://www.w3.org/2000/svg" viewBox="0 0 596 596">
  <defs>
    <linearGradient id="bg" x1="0%" y1="0%" x2="100%" y2="100%">
      <stop offset="0%" style="stop-color:#ffffff"/>
      <stop offset="100%" style="stop-color:#f8f8f8"/>
    </linearGradient>
  </defs>
  <rect width="596" height="596" rx="24" fill="url(#bg)"/>
  <!-- Label -->
  <text x="60" y="70" font-family="sans-serif" font-size="24" font-weight="700" fill="#333333">扫码支付</text>
  <!-- QR Code placeholder with pattern -->
  <rect x="60" y="100" width="300" height="300" rx="16" fill="#f0f0f0" stroke="#e0e0e0"/>
  <!-- Fake QR pattern -->
  <rect x="85" y="125" width="50" height="50" rx="4" fill="#333333"/>
  <rect x="93" y="133" width="34" height="34" rx="2" fill="#f0f0f0"/>
  <rect x="101" y="141" width="18" height="18" rx="1" fill="#333333"/>
  <rect x="265" y="125" width="50" height="50" rx="4" fill="#333333"/>
  <rect x="273" y="133" width="34" height="34" rx="2" fill="#f0f0f0"/>
  <rect x="281" y="141" width="18" height="18" rx="1" fill="#333333"/>
  <rect x="85" y="325" width="50" height="50" rx="4" fill="#333333"/>
  <rect x="93" y="333" width="34" height="34" rx="2" fill="#f0f0f0"/>
  <rect x="101" y="341" width="18" height="18" rx="1" fill="#333333"/>
  <!-- QR data dots -->
  <rect x="155" y="130" width="12" height="12" rx="1" fill="#333333"/>
  <rect x="175" y="130" width="12" height="12" rx="1" fill="#333333"/>
  <rect x="195" y="130" width="12" height="12" rx="1" fill="#333333"/>
  <rect x="215" y="130" width="12" height="12" rx="1" fill="#333333"/>
  <rect x="155" y="150" width="12" height="12" rx="1" fill="#333333"/>
  <rect x="195" y="150" width="12" height="12" rx="1" fill="#333333"/>
  <rect x="235" y="150" width="12" height="12" rx="1" fill="#333333"/>
  <rect x="155" y="170" width="12" height="12" rx="1" fill="#333333"/>
  <rect x="175" y="170" width="12" height="12" rx="1" fill="#333333"/>
  <rect x="215" y="170" width="12" height="12" rx="1" fill="#333333"/>
  <rect x="235" y="170" width="12" height="12" rx="1" fill="#333333"/>
  <rect x="155" y="190" width="12" height="12" rx="1" fill="#333333"/>
  <rect x="175" y="190" width="12" height="12" rx="1" fill="#333333"/>
  <rect x="195" y="190" width="12" height="12" rx="1" fill="#333333"/>
  <rect x="235" y="190" width="12" height="12" rx="1" fill="#333333"/>
  <rect x="85" y="210" width="12" height="12" rx="1" fill="#333333"/>
  <rect x="105" y="210" width="12" height="12" rx="1" fill="#333333"/>
  <rect x="125" y="210" width="12" height="12" rx="1" fill="#333333"/>
  <rect x="155" y="210" width="12" height="12" rx="1" fill="#333333"/>
  <rect x="175" y="210" width="12" height="12" rx="1" fill="#333333"/>
  <rect x="215" y="210" width="12" height="12" rx="1" fill="#333333"/>
  <rect x="235" y="210" width="12" height="12" rx="1" fill="#333333"/>
  <rect x="275" y="210" width="12" height="12" rx="1" fill="#333333"/>
  <rect x="295" y="210" width="12" height="12" rx="1" fill="#333333"/>
  <rect x="315" y="210" width="12" height="12" rx="1" fill="#333333"/>
  <rect x="85" y="230" width="12" height="12" rx="1" fill="#333333"/>
  <rect x="125" y="230" width="12" height="12" rx="1" fill="#333333"/>
  <rect x="155" y="230" width="12" height="12" rx="1" fill="#333333"/>
  <rect x="195" y="230" width="12" height="12" rx="1" fill="#333333"/>
  <rect x="215" y="230" width="12" height="12" rx="1" fill="#333333"/>
  <rect x="255" y="230" width="12" height="12" rx="1" fill="#333333"/>
  <rect x="295" y="230" width="12" height="12" rx="1" fill="#333333"/>
  <rect x="315" y="230" width="12" height="12" rx="1" fill="#333333"/>
  <rect x="85" y="250" width="12" height="12" rx="1" fill="#333333"/>
  <rect x="105" y="250" width="12" height="12" rx="1" fill="#333333"/>
  <rect x="125" y="250" width="12" height="12" rx="1" fill="#333333"/>
  <rect x="175" y="250" width="12" height="12" rx="1" fill="#333333"/>
  <rect x="195" y="250" width="12" height="12" rx="1" fill="#333333"/>
  <rect x="235" y="250" width="12" height="12" rx="1" fill="#333333"/>
  <rect x="255" y="250" width="12" height="12" rx="1" fill="#333333"/>
  <rect x="295" y="250" width="12" height="12" rx="1" fill="#333333"/>
  <rect x="155" y="270" width="12" height="12" rx="1" fill="#333333"/>
  <rect x="175" y="270" width="12" height="12" rx="1" fill="#333333"/>
  <rect x="195" y="270" width="12" height="12" rx="1" fill="#333333"/>
  <rect x="215" y="270" width="12" height="12" rx="1" fill="#333333"/>
  <rect x="255" y="270" width="12" height="12" rx="1" fill="#333333"/>
  <rect x="275" y="270" width="12" height="12" rx="1" fill="#333333"/>
  <rect x="315" y="270" width="12" height="12" rx="1" fill="#333333"/>
  <rect x="85" y="290" width="12" height="12" rx="1" fill="#333333"/>
  <rect x="105" y="290" width="12" height="12" rx="1" fill="#333333"/>
  <rect x="155" y="290" width="12" height="12" rx="1" fill="#333333"/>
  <rect x="175" y="290" width="12" height="12" rx="1" fill="#333333"/>
  <rect x="215" y="290" width="12" height="12" rx="1" fill="#333333"/>
  <rect x="235" y="290" width="12" height="12" rx="1" fill="#333333"/>
  <rect x="275" y="290" width="12" height="12" rx="1" fill="#333333"/>
  <rect x="295" y="290" width="12" height="12" rx="1" fill="#333333"/>
  <rect x="315" y="290" width="12" height="12" rx="1" fill="#333333"/>
  <rect x="155" y="310" width="12" height="12" rx="1" fill="#333333"/>
  <rect x="195" y="310" width="12" height="12" rx="1" fill="#333333"/>
  <rect x="215" y="310" width="12" height="12" rx="1" fill="#333333"/>
  <rect x="255" y="310" width="12" height="12" rx="1" fill="#333333"/>
  <rect x="275" y="310" width="12" height="12" rx="1" fill="#333333"/>
  <rect x="295" y="310" width="12" height="12" rx="1" fill="#333333"/>
  <rect x="155" y="330" width="12" height="12" rx="1" fill="#333333"/>
  <rect x="175" y="330" width="12" height="12" rx="1" fill="#333333"/>
  <rect x="215" y="330" width="12" height="12" rx="1" fill="#333333"/>
  <rect x="235" y="330" width="12" height="12" rx="1" fill="#333333"/>
  <rect x="275" y="330" width="12" height="12" rx="1" fill="#333333"/>
  <rect x="315" y="330" width="12" height="12" rx="1" fill="#333333"/>
  <rect x="155" y="350" width="12" height="12" rx="1" fill="#333333"/>
  <rect x="175" y="350" width="12" height="12" rx="1" fill="#333333"/>
  <rect x="195" y="350" width="12" height="12" rx="1" fill="#333333"/>
  <rect x="235" y="350" width="12" height="12" rx="1" fill="#333333"/>
  <rect x="255" y="350" width="12" height="12" rx="1" fill="#333333"/>
  <rect x="295" y="350" width="12" height="12" rx="1" fill="#333333"/>
  <rect x="315" y="350" width="12" height="12" rx="1" fill="#333333"/>
  <!-- Hint -->
  <text x="210" y="440" text-anchor="middle" font-family="sans-serif" font-size="14" fill="#999999">长按识别</text>
  <!-- Label -->
  <rect x="60" y="490" width="110" height="36" rx="18" fill="#333333" fill-opacity="0.1"/>
  <text x="115" y="514" text-anchor="middle" font-family="sans-serif" font-size="14" font-weight="600" fill="#333333">📱 二维码</text>
</svg>
